<svg xmlns="http://www.w3.org/2000/svg" viewBox="0 0 1600 500" width="1600" height="500">
  <rect width="1600" height="500" fill="#0C1A1A"/>

  <!-- Mark on the left -->
  <g transform="translate(240,130)">
    <path fill="#0ABFBC" fill-rule="evenodd" d="
      M 0,0
      L 120,240
      L 160,250
      L 75,264
      L 0,228
      L -75,264
      L -160,250
      L -120,240
      Z
      M 0,74
      L -58,203
      L -34,203
      L 0,145
      L 34,203
      L 58,203
      Z
    "/>
  </g>

  <!-- Divider -->
  <line x1="460" y1="170" x2="460" y2="330" stroke="#1F3333" stroke-width="2"/>

  <!-- Wordmark -->
  <g transform="translate(520,190)" fill="#FFFFFF">
    <!-- A -->
    <g transform="translate(0,0)">
      <path d="M 0,150 L 30,150 L 38,128 L 82,128 L 90,150 L 120,150 L 75,0 L 45,0 Z
               M 48,98 L 72,98 L 60,58 Z" fill-rule="evenodd"/>
    </g>
    <!-- S -->
    <g transform="translate(140,0)">
      <path d="M 0,30 L 30,0 L 120,0 L 120,30 L 30,30 L 30,60 L 90,60 L 120,90 L 120,150 L 0,150 L 0,120 L 90,120 L 90,90 L 30,90 L 0,60 Z"/>
    </g>
    <!-- T -->
    <g transform="translate(280,0)">
      <path d="M 0,0 L 120,0 L 120,30 L 75,30 L 75,150 L 45,150 L 45,30 L 0,30 Z"/>
    </g>
    <!-- R -->
    <g transform="translate(420,0)">
      <path d="M 0,0 L 90,0 L 120,30 L 120,60 L 90,90 L 120,150 L 88,150 L 60,95 L 30,95 L 30,150 L 0,150 Z
               M 30,30 L 30,65 L 80,65 L 90,55 L 90,40 L 80,30 Z" fill-rule="evenodd"/>
    </g>
  </g>

  <!-- "aa" in teal -->
  <g transform="translate(520,190)" fill="#0ABFBC">
    <g transform="translate(560,0)">
      <path d="M 0,150 L 30,150 L 38,128 L 82,128 L 90,150 L 120,150 L 75,0 L 45,0 Z
               M 48,98 L 72,98 L 60,58 Z" fill-rule="evenodd"/>
    </g>
    <g transform="translate(700,0)">
      <path d="M 0,150 L 30,150 L 38,128 L 82,128 L 90,150 L 120,150 L 75,0 L 45,0 Z
               M 48,98 L 72,98 L 60,58 Z" fill-rule="evenodd"/>
    </g>
  </g>

  <!-- Tagline -->
  <text x="520" y="375" font-family="'Inter', sans-serif" font-size="18" letter-spacing="6" fill="#9CA3AF">
    INTELLIGENCE THAT GETS YOU HIRED
  </text>
</svg>
